<svg width="32" height="32" viewBox="0 0 98 98" fill="none" xmlns="http://www.w3.org/2000/svg">
<path fill-rule="evenodd" clip-rule="evenodd" d="M15.3032 21.9179C9.45182 29.213 5.95149 38.4748 5.95149 48.5543C5.95149 58.6337 9.45182 67.8956 15.3032 75.1906V21.9179ZM21.2547 15.8462V81.2624C24.0379 83.5878 27.1224 85.5647 30.4411 87.1259V9.98265C27.1224 11.5438 24.0379 13.5207 21.2547 15.8462ZM36.3926 7.71258V89.396C39.334 90.2705 42.4085 90.836 45.5784 91.0547V6.05381C42.4085 6.27253 39.334 6.83801 36.3926 7.71258ZM51.5299 6.05379V15.3787H75.2845C68.6974 10.0647 60.4952 6.67234 51.5299 6.05379ZM81.3253 21.3302H51.5299V30.5224H87.164C85.611 27.2028 83.6425 24.1164 81.3253 21.3302ZM89.42 36.4739H51.5299V45.6601H91.0603C90.8477 42.4905 90.2884 39.4159 89.42 36.4739ZM91.049 51.6116H51.5299V91.0548C54.8541 90.8254 58.0734 90.2147 61.1444 89.2661V61.1681H89.2588C90.2038 58.1152 90.8148 54.9154 91.049 51.6116ZM86.9099 67.1196H67.0959V72.6082H73.0475V78.5597H67.0959V86.9214C75.7229 82.7445 82.7279 75.7437 86.9099 67.1196ZM0 48.5543C0 21.7385 21.7385 0 48.5543 0C75.3701 0 97.1086 21.7385 97.1086 48.5543C97.1086 75.3701 75.3701 97.1086 48.5543 97.1086C21.7385 97.1086 0 75.3701 0 48.5543Z" fill="white"/>
</svg>
