<svg width="428" height="94" viewBox="0 0 428 94" fill="none" xmlns="http://www.w3.org/2000/svg">
<path d="M161.686 75.2117C157.459 75.2117 153.541 74.4712 149.932 72.9902C146.351 71.4823 143.214 69.3955 140.522 66.7298C137.856 64.064 135.783 60.9405 134.302 57.3593C132.821 53.778 132.08 49.9006 132.08 45.7269C132.08 41.5264 132.821 37.6355 134.302 34.0542C135.783 30.473 137.856 27.3495 140.522 24.6837C143.214 22.018 146.351 19.9446 149.932 18.4636C153.541 16.9827 157.459 16.2422 161.686 16.2422C165.887 16.2422 169.777 16.9961 173.359 18.504C176.94 20.0119 180.077 22.1122 182.77 24.8049C185.462 27.4976 187.549 30.6345 189.03 34.2158C190.538 37.7701 191.292 41.6072 191.292 45.7269C191.292 49.9006 190.538 53.778 189.03 57.3593C187.549 60.9405 185.462 64.064 182.77 66.7298C180.077 69.3955 176.94 71.4823 173.359 72.9902C169.777 74.4712 165.887 75.2117 161.686 75.2117ZM161.686 67.9819C164.729 67.9819 167.556 67.4568 170.168 66.4067C172.807 65.3565 175.109 63.8621 177.075 61.9234C179.04 59.9577 180.575 57.6016 181.679 54.8551C182.81 52.1086 183.375 49.0659 183.375 45.7269C183.375 41.2302 182.406 37.3123 180.467 33.9734C178.556 30.6345 175.957 28.0496 172.672 26.2185C169.387 24.3606 165.725 23.4316 161.686 23.4316C158.643 23.4316 155.803 23.9702 153.164 25.0472C150.552 26.0974 148.25 27.6053 146.257 29.5709C144.291 31.5096 142.757 33.8523 141.653 36.5988C140.549 39.3184 139.997 42.3611 139.997 45.7269C139.997 50.1968 140.952 54.1011 142.864 57.4401C144.803 60.779 147.415 63.3774 150.7 65.2353C153.985 67.0664 157.647 67.9819 161.686 67.9819Z" fill="white"/>
<path d="M196.137 90.9638V34.4177H202.963V40.3551C204.606 38.2548 206.666 36.5449 209.143 35.2255C211.647 33.8792 214.798 33.206 218.594 33.206C222.526 33.206 225.986 34.135 228.975 35.9929C231.963 37.8239 234.293 40.3281 235.962 43.5055C237.658 46.6828 238.507 50.2506 238.507 54.2089C238.507 57.09 238.022 59.8096 237.053 62.3676C236.11 64.8988 234.75 67.1337 232.973 69.0724C231.196 70.9842 229.082 72.4921 226.632 73.5961C224.209 74.6732 221.502 75.2117 218.514 75.2117C215.175 75.2117 212.253 74.5924 209.749 73.3537C207.272 72.0882 205.198 70.4322 203.529 68.3858V90.9638H196.137ZM217.261 68.5069C219.927 68.5069 222.283 67.928 224.33 66.7702C226.403 65.5854 228.019 63.9294 229.177 61.8022C230.361 59.648 230.954 57.1169 230.954 54.2089C230.954 51.2738 230.361 48.7427 229.177 46.6155C228.019 44.4614 226.403 42.8054 224.33 41.6475C222.283 40.4897 219.927 39.9108 217.261 39.9108C214.596 39.9108 212.226 40.4897 210.153 41.6475C208.106 42.8054 206.491 44.4614 205.306 46.6155C204.121 48.7427 203.529 51.2738 203.529 54.2089C203.529 57.1169 204.121 59.648 205.306 61.8022C206.491 63.9294 208.106 65.5854 210.153 66.7702C212.226 67.928 214.596 68.5069 217.261 68.5069Z" fill="white"/>
<path d="M260.36 75.2117C256.16 75.2117 252.457 74.3366 249.253 72.5863C246.049 70.8361 243.544 68.3992 241.74 65.2757C239.936 62.1253 239.034 58.4633 239.034 54.2896C239.034 51.2738 239.546 48.4735 240.569 45.8885C241.619 43.3035 243.073 41.0686 244.931 39.1837C246.816 37.2989 249.011 35.8314 251.515 34.7812C254.046 33.7311 256.792 33.206 259.754 33.206C262.959 33.206 265.813 33.7715 268.317 34.9024C270.848 36.0333 272.935 37.622 274.577 39.6684C276.247 41.6879 277.445 44.0709 278.172 46.8175C278.899 49.5371 279.047 52.499 278.617 55.7033H246.385C246.304 58.3421 246.843 60.6578 248.001 62.6504C249.159 64.616 250.828 66.1508 253.009 67.2548C255.217 68.3588 257.829 68.9108 260.845 68.9108C263.053 68.9108 265.207 68.5608 267.307 67.8607C269.408 67.1606 271.266 66.1239 272.881 64.7507L276.032 70.2841C274.739 71.3342 273.204 72.2363 271.427 72.9902C269.677 73.7173 267.846 74.2693 265.934 74.6462C264.022 75.0232 262.164 75.2117 260.36 75.2117ZM246.789 49.9275H271.185C271.077 46.5886 270.04 43.9902 268.075 42.1322C266.109 40.2474 263.295 39.3049 259.633 39.3049C256.079 39.3049 253.144 40.2474 250.828 42.1322C248.512 43.9902 247.166 46.5886 246.789 49.9275Z" fill="white"/>
<path d="M282.569 74V34.4177H290.001V39.7492C291.697 37.4335 293.676 35.7641 295.938 34.7408C298.2 33.7176 300.516 33.206 302.885 33.206C306.467 33.206 309.428 33.933 311.771 35.3871C314.141 36.8142 315.904 38.6452 317.062 40.8801C318.247 43.115 318.839 45.4038 318.839 47.7464V74H311.408V50.0487C311.408 47.0598 310.479 44.6633 308.621 42.8592C306.763 41.0282 304.232 40.1127 301.027 40.1127C298.927 40.1127 297.042 40.5839 295.373 41.5264C293.73 42.4419 292.424 43.7478 291.455 45.4442C290.486 47.1406 290.001 49.0928 290.001 51.3008V74H282.569Z" fill="white"/>
<path d="M352.366 75.2117C346.523 75.2117 341.407 74 337.018 71.5766C332.656 69.1263 329.263 65.6931 326.84 61.2771C324.443 56.8342 323.245 51.6508 323.245 45.7269C323.245 41.4456 323.959 37.5143 325.386 33.933C326.813 30.3249 328.832 27.2014 331.444 24.5625C334.056 21.9237 337.139 19.8773 340.694 18.4233C344.275 16.9692 348.179 16.2422 352.407 16.2422C356.58 16.2422 360.229 16.7673 363.352 17.8174C366.476 18.8406 369.169 20.3081 371.43 22.2199L367.391 28.44C365.56 26.7975 363.433 25.5723 361.01 24.7645C358.586 23.9567 355.907 23.5528 352.972 23.5528C349.66 23.5528 346.658 24.0644 343.965 25.0876C341.272 26.1108 338.97 27.5918 337.058 29.5305C335.174 31.4423 333.72 33.758 332.696 36.4776C331.673 39.1972 331.161 42.2534 331.161 45.6462C331.161 50.3314 332.064 54.33 333.868 57.642C335.699 60.954 338.284 63.4851 341.622 65.2353C344.961 66.9587 348.906 67.8203 353.457 67.8203C356.392 67.8203 359.206 67.3895 361.898 66.5278C364.618 65.6392 367.162 64.1987 369.532 62.2061L373.086 68.6685C370.313 70.8496 367.203 72.4921 363.756 73.5961C360.337 74.6732 356.54 75.2117 352.366 75.2117Z" fill="white"/>
<path d="M391.647 74V24.4414H375.45V17.4539H415.437V24.4414H399.24V74H391.647Z" fill="white"/>
<path d="M419.735 74V17.4539H427.328V74H419.735Z" fill="white"/>
<path fill-rule="evenodd" clip-rule="evenodd" d="M88.9291 92.7898L0.878906 4.73959L5.12155 0.496948L93.1717 88.5471L88.9291 92.7898Z" fill="white"/>
<path fill-rule="evenodd" clip-rule="evenodd" d="M0.878906 88.5471L88.9291 0.496948L93.1717 4.73959L5.12155 92.7898L0.878906 88.5471Z" fill="white"/>
<path fill-rule="evenodd" clip-rule="evenodd" d="M72.4768 4.73985L46.8559 30.3516L21.2559 4.73891L25.4996 0.497398L46.8573 21.8665L68.2349 0.49646L72.4768 4.73985Z" fill="white"/>
<path fill-rule="evenodd" clip-rule="evenodd" d="M46.9639 62.9672L49.1139 65.1175L72.5511 88.5463L68.3092 92.7897L46.9645 71.4526L25.6317 92.7892L21.3887 88.5469L46.9639 62.9672Z" fill="white"/>
<path d="M51.173 5.58703L46.5859 1L41.9989 5.58703L46.5859 10.1741L51.173 5.58703Z" fill="white"/>
<path d="M51.1769 88.587L46.5898 84L42.0028 88.587L46.5898 93.1741L51.1769 88.587Z" fill="white"/>
</svg>
