<svg width="481" height="94" viewBox="0 0 481 94" fill="none" xmlns="http://www.w3.org/2000/svg">
<g clip-path="url(#clip0_329_143)">
<mask id="mask0_329_143" style="mask-type:luminance" maskUnits="userSpaceOnUse" x="0" y="0" width="93" height="93">
<path d="M93 0H0V93H93V0Z" fill="white"/>
</mask>
<g mask="url(#mask0_329_143)">
<path fill-rule="evenodd" clip-rule="evenodd" d="M43.498 93V0H49.498V93H43.498Z" fill="#001BDA"/>
<path fill-rule="evenodd" clip-rule="evenodd" d="M1.01328e-06 43.4978H93V49.4978H0L1.01328e-06 43.4978Z" fill="#001BDA"/>
<path fill-rule="evenodd" clip-rule="evenodd" d="M28.6621 46.4895H34.6621V58.3336H46.6613V64.3336H28.6621V46.4895Z" fill="#001BDA"/>
<path fill-rule="evenodd" clip-rule="evenodd" d="M13.8171 46.489L19.8171 46.4899L19.8133 73.1819H46.3545V79.1819H13.8125L13.8171 46.489Z" fill="#001BDA"/>
<path fill-rule="evenodd" clip-rule="evenodd" d="M46.3008 14.0818H78.8428L78.8382 46.7705L72.8382 46.7696L72.8419 20.0818H46.3008V14.0818Z" fill="#001BDA"/>
<path fill-rule="evenodd" clip-rule="evenodd" d="M46.0718 29.0015L64.0735 29.0115L64.0693 46.8506L58.0693 46.8489L58.0727 35.0082L46.0684 35.0015L46.0718 29.0015Z" fill="#001BDA"/>
</g>
<path d="M161.747 77.0961C157.386 77.0961 153.345 76.3323 149.623 74.8046C145.929 73.2491 142.693 71.0964 139.915 68.3466C137.165 65.5967 135.026 62.3746 133.499 58.6804C131.971 54.9861 131.207 50.9863 131.207 46.681C131.207 42.3479 131.971 38.3342 133.499 34.6399C135.026 30.9457 137.165 27.7236 139.915 24.9738C142.693 22.2239 145.929 20.0851 149.623 18.5574C153.345 17.0297 157.386 16.2659 161.747 16.2659C166.08 16.2659 170.094 17.0436 173.788 18.5991C177.483 20.1546 180.719 22.3211 183.496 25.0988C186.274 27.8764 188.427 31.1123 189.954 34.8066C191.51 38.4731 192.287 42.4312 192.287 46.681C192.287 50.9863 191.51 54.9861 189.954 58.6804C188.427 62.3746 186.274 65.5967 183.496 68.3466C180.719 71.0964 177.483 73.2491 173.788 74.8046C170.094 76.3323 166.08 77.0961 161.747 77.0961ZM161.747 69.6382C164.886 69.6382 167.803 69.0965 170.497 68.0132C173.219 66.93 175.594 65.3884 177.622 63.3885C179.649 61.3608 181.232 58.9304 182.371 56.0972C183.538 53.264 184.121 50.1253 184.121 46.681C184.121 42.0423 183.121 38.0009 181.121 34.5566C179.149 31.1123 176.469 28.4458 173.08 26.557C169.691 24.6404 165.914 23.6822 161.747 23.6822C158.609 23.6822 155.678 24.2377 152.956 25.3487C150.262 26.432 147.887 27.9875 145.831 30.0152C143.804 32.0151 142.221 34.4316 141.082 37.2648C139.943 40.0702 139.373 43.2089 139.373 46.681C139.373 51.2919 140.36 55.3194 142.332 58.7637C144.332 62.208 147.026 64.8884 150.415 66.805C153.803 68.6938 157.581 69.6382 161.747 69.6382Z" fill="#00020C"/>
<path d="M197.286 93.3453V35.0149H204.327V41.1396C206.022 38.9731 208.146 37.2093 210.702 35.8482C213.285 34.4594 216.535 33.765 220.451 33.765C224.507 33.765 228.076 34.7233 231.159 36.6398C234.242 38.5286 236.645 41.1118 238.367 44.3894C240.117 47.6671 240.992 51.3474 240.992 55.4306C240.992 58.4026 240.492 61.208 239.492 63.8468C238.52 66.4578 237.117 68.7632 235.284 70.7631C233.451 72.7352 231.27 74.2907 228.743 75.4295C226.243 76.5406 223.451 77.0961 220.368 77.0961C216.924 77.0961 213.91 76.4573 211.327 75.1796C208.771 73.8741 206.633 72.1658 204.911 70.0548V93.3453H197.286ZM219.076 70.1798C221.826 70.1798 224.257 69.5826 226.368 68.3882C228.507 67.1661 230.173 65.4578 231.368 63.2635C232.59 61.0414 233.201 58.4304 233.201 55.4306C233.201 52.4029 232.59 49.7919 231.368 47.5976C230.173 45.3755 228.507 43.6673 226.368 42.4729C224.257 41.2785 221.826 40.6813 219.076 40.6813C216.327 40.6813 213.882 41.2785 211.744 42.4729C209.632 43.6673 207.966 45.3755 206.744 47.5976C205.522 49.7919 204.911 52.4029 204.911 55.4306C204.911 58.4304 205.522 61.0414 206.744 63.2635C207.966 65.4578 209.632 67.1661 211.744 68.3882C213.882 69.5826 216.327 70.1798 219.076 70.1798Z" fill="#00020C"/>
<path d="M263.535 77.0961C259.202 77.0961 255.383 76.1934 252.077 74.3879C248.772 72.5825 246.189 70.0687 244.328 66.8466C242.467 63.5968 241.536 59.8192 241.536 55.5139C241.536 52.4029 242.064 49.5142 243.12 46.8477C244.203 44.1811 245.703 41.8757 247.619 39.9313C249.564 37.987 251.827 36.4732 254.411 35.3899C257.022 34.3066 259.855 33.765 262.91 33.765C266.216 33.765 269.16 34.3483 271.743 35.5149C274.354 36.6815 276.507 38.3203 278.201 40.4313C279.923 42.5145 281.159 44.9727 281.909 47.8059C282.659 50.6114 282.812 53.6668 282.368 56.9721H249.119C249.036 59.6942 249.591 62.083 250.786 64.1384C251.98 66.1661 253.702 67.7494 255.952 68.8882C258.23 70.027 260.924 70.5965 264.035 70.5965C266.313 70.5965 268.535 70.2354 270.701 69.5132C272.868 68.791 274.785 67.7216 276.451 66.305L279.701 72.013C278.368 73.0963 276.784 74.0268 274.951 74.8046C273.146 75.5545 271.257 76.1239 269.285 76.5128C267.313 76.9017 265.396 77.0961 263.535 77.0961ZM249.536 51.0141H274.701C274.59 47.5698 273.521 44.8894 271.493 42.9729C269.465 41.0285 266.563 40.0563 262.785 40.0563C259.119 40.0563 256.091 41.0285 253.702 42.9729C251.314 44.8894 249.925 47.5698 249.536 51.0141Z" fill="#00020C"/>
<path d="M286.445 75.8462V35.0149H294.111V40.5146C295.861 38.1259 297.903 36.4037 300.236 35.3482C302.569 34.2927 304.958 33.765 307.402 33.765C311.096 33.765 314.152 34.5149 316.568 36.0149C319.013 37.487 320.832 39.3758 322.026 41.6812C323.248 43.9867 323.86 46.3477 323.86 48.7642V75.8462H316.193V51.1391C316.193 48.0559 315.235 45.5838 313.318 43.7228C311.402 41.834 308.791 40.8896 305.485 40.8896C303.319 40.8896 301.375 41.3757 299.652 42.3479C297.958 43.2923 296.611 44.6394 295.611 46.3893C294.611 48.1393 294.111 50.153 294.111 52.4307V75.8462H286.445Z" fill="#00020C"/>
<path d="M326.942 75.8461L349.899 17.5157H358.023L381.689 75.8461H372.856L367.065 61.2218H341.066L335.525 75.8461H326.942ZM343.274 54.3888H364.773L353.774 27.2235L343.274 54.3888Z" fill="#00020C"/>
<path d="M387.758 75.8V17H424.634V24.056H395.654V41.57H420.896V48.332H395.654V68.702H424.886V75.8H387.758Z" fill="#00020C"/>
<path d="M450.69 75.8L427.758 17H436.662L454.848 64.964L472.278 17H480.93L458.754 75.8H450.69Z" fill="#00020C"/>
</g>
<defs>
<clipPath id="clip0_329_143">
<rect width="481" height="94" fill="white"/>
</clipPath>
</defs>
</svg>
