<svg width="388" height="98" viewBox="0 0 388 98" fill="none" xmlns="http://www.w3.org/2000/svg">
<path fill-rule="evenodd" clip-rule="evenodd" d="M15.3032 21.9179C9.45182 29.213 5.95149 38.4748 5.95149 48.5543C5.95149 58.6337 9.45182 67.8956 15.3032 75.1906V21.9179ZM21.2547 15.8462V81.2624C24.0379 83.5878 27.1224 85.5647 30.4411 87.1259V9.98265C27.1224 11.5438 24.0379 13.5207 21.2547 15.8462ZM36.3926 7.71258V89.396C39.334 90.2705 42.4085 90.836 45.5784 91.0547V6.05381C42.4085 6.27253 39.334 6.83801 36.3926 7.71258ZM51.5299 6.05379V15.3787H75.2845C68.6974 10.0647 60.4952 6.67234 51.5299 6.05379ZM81.3253 21.3302H51.5299V30.5224H87.164C85.611 27.2028 83.6425 24.1164 81.3253 21.3302ZM89.42 36.4739H51.5299V45.6601H91.0603C90.8477 42.4905 90.2884 39.4159 89.42 36.4739ZM91.049 51.6116H51.5299V91.0548C54.8541 90.8254 58.0734 90.2147 61.1444 89.2661V61.1681H89.2588C90.2038 58.1152 90.8148 54.9154 91.049 51.6116ZM86.9099 67.1196H67.0959V72.6082H73.0475V78.5597H67.0959V86.9214C75.7229 82.7445 82.7279 75.7437 86.9099 67.1196ZM0 48.5543C0 21.7385 21.7385 0 48.5543 0C75.3701 0 97.1086 21.7385 97.1086 48.5543C97.1086 75.3701 75.3701 97.1086 48.5543 97.1086C21.7385 97.1086 0 75.3701 0 48.5543Z" fill="#001BDA"/>
<path d="M350.176 78.4503V37.1742H357.926V42.7338C359.695 40.319 361.758 38.5781 364.117 37.5111C366.476 36.4441 368.89 35.9106 371.361 35.9106C375.096 35.9106 378.185 36.6688 380.627 38.185C383.098 39.6732 384.938 41.5826 386.145 43.9131C387.38 46.2437 387.998 48.6304 387.998 51.0733V78.4503H380.248V53.474C380.248 50.3573 379.28 47.8582 377.342 45.9769C375.405 44.0676 372.765 43.1129 369.424 43.1129C367.234 43.1129 365.268 43.6043 363.527 44.587C361.815 45.5417 360.453 46.9036 359.442 48.6725C358.431 50.4415 357.926 52.4772 357.926 54.7797V78.4503H350.176Z" fill="#00020C"/>
<path d="M319.077 79.7138C314.922 79.7138 311.243 78.7451 308.042 76.8076C304.841 74.8702 302.342 72.2588 300.545 68.9736C298.748 65.6603 297.85 61.9398 297.85 57.8122C297.85 54.7235 298.369 51.8454 299.408 49.1779C300.447 46.5104 301.907 44.1939 303.788 42.2284C305.67 40.2348 307.902 38.6905 310.485 37.5954C313.096 36.4722 315.961 35.9106 319.077 35.9106C323.233 35.9106 326.687 36.7811 329.438 38.522C332.19 40.2629 334.338 42.4811 335.883 45.1767L334.745 46.8614V37.1742H341.821V78.4502H334.745V68.763L335.883 70.4056C334.338 73.1012 332.19 75.3335 329.438 77.1025C326.687 78.8434 323.233 79.7138 319.077 79.7138ZM319.92 72.7221C322.671 72.7221 325.114 72.1184 327.248 70.9111C329.382 69.6756 331.053 67.9487 332.26 65.7305C333.496 63.4842 334.114 60.8447 334.114 57.8122C334.114 54.7516 333.496 52.1122 332.26 49.894C331.053 47.6476 329.382 45.9208 327.248 44.7134C325.114 43.506 322.671 42.9023 319.92 42.9023C317.168 42.9023 314.725 43.506 312.591 44.7134C310.457 45.9208 308.772 47.6476 307.537 49.894C306.301 52.1122 305.684 54.7516 305.684 57.8122C305.684 60.8447 306.301 63.4842 307.537 65.7305C308.772 67.9487 310.457 69.6756 312.591 70.9111C314.725 72.1184 317.168 72.7221 319.92 72.7221Z" fill="#00020C"/>
<path d="M273.666 78.4499V37.1738H281.416V43.1547C283.072 40.4591 285.038 38.5778 287.312 37.5108C289.615 36.4157 292.058 35.8682 294.641 35.8682C295.455 35.8682 296.241 35.9103 297 35.9945C297.758 36.0788 298.502 36.1911 299.232 36.3315L298.095 44.3761C297.308 44.1515 296.508 43.983 295.694 43.8707C294.88 43.7303 294.079 43.6601 293.293 43.6601C289.839 43.6601 286.989 44.7411 284.743 46.9032C282.525 49.0372 281.416 51.9012 281.416 55.4954V78.4499H273.666Z" fill="#00020C"/>
<path d="M242.984 97.4036C240.316 97.4036 237.635 97.1368 234.939 96.6033C232.244 96.0698 229.674 95.1994 227.231 93.992L229.295 87.3794C231.513 88.4183 233.76 89.1905 236.034 89.6959C238.309 90.2013 240.541 90.454 242.731 90.454C247.701 90.454 251.492 89.2326 254.103 86.7897C256.742 84.3468 258.062 81.1318 258.062 77.1446V68.1734L259.157 69.816C257.641 72.5396 255.521 74.7719 252.797 76.5128C250.074 78.2256 246.648 79.082 242.52 79.082C238.309 79.082 234.616 78.1274 231.443 76.218C228.27 74.2805 225.799 71.6832 224.03 68.4261C222.261 65.1689 221.377 61.5187 221.377 57.4753C221.377 54.4708 221.882 51.6629 222.893 49.0516C223.904 46.4403 225.336 44.1518 227.189 42.1863C229.071 40.1927 231.303 38.6483 233.886 37.5533C236.469 36.4582 239.347 35.9106 242.52 35.9106C246.648 35.9106 250.074 36.7671 252.797 38.4799C255.521 40.1927 257.641 42.4109 259.157 45.1346L258.062 46.8193V37.1321H265.349V75.2071C265.349 82.1707 263.467 87.604 259.705 91.507C255.97 95.438 250.397 97.4036 242.984 97.4036ZM243.447 72.1746C246.199 72.1746 248.642 71.5709 250.776 70.3635C252.938 69.1561 254.622 67.4573 255.83 65.2672C257.037 63.077 257.641 60.4797 257.641 57.4753C257.641 54.4989 257.037 51.9156 255.83 49.7255C254.622 47.5073 252.938 45.7944 250.776 44.587C248.642 43.3796 246.199 42.7759 243.447 42.7759C240.667 42.7759 238.21 43.3796 236.076 44.587C233.942 45.7944 232.258 47.5073 231.022 49.7255C229.815 51.9156 229.211 54.4989 229.211 57.4753C229.211 60.4797 229.815 63.077 231.022 65.2672C232.258 67.4573 233.942 69.1561 236.076 70.3635C238.21 71.5709 240.667 72.1746 243.447 72.1746Z" fill="#00020C"/>
<path d="M208.995 78.4501V37.174H216.745V78.4501H208.995ZM212.87 29.3821C211.41 29.3821 210.146 28.8908 209.079 27.908C208.012 26.9252 207.479 25.6757 207.479 24.1594C207.479 22.6432 208.012 21.4077 209.079 20.453C210.146 19.4703 211.41 18.9789 212.87 18.9789C214.358 18.9789 215.621 19.4703 216.66 20.453C217.727 21.4077 218.261 22.6432 218.261 24.1594C218.261 25.6757 217.727 26.9252 216.66 27.908C215.621 28.8908 214.358 29.3821 212.87 29.3821Z" fill="#00020C"/>
<path d="M192.906 78.4501V17.7996H200.656V78.4501H192.906Z" fill="#00020C"/>
<path d="M176.823 78.4502V37.1742H184.573V78.4502H176.823ZM180.698 29.3823C179.238 29.3823 177.974 28.8909 176.907 27.9081C175.84 26.9253 175.307 25.6758 175.307 24.1596C175.307 22.6433 175.84 21.4078 176.907 20.4531C177.974 19.4704 179.238 18.979 180.698 18.979C182.186 18.979 183.45 19.4704 184.488 20.4531C185.555 21.4078 186.089 22.6433 186.089 24.1596C186.089 25.6758 185.555 26.9253 184.488 27.9081C183.45 28.8909 182.186 29.3823 180.698 29.3823Z" fill="#00020C"/>
<path d="M134.562 78.4501V19.4843H170.195V26.7707H142.481V45.3028H155.541V52.4209H142.481V78.4501H134.562Z" fill="#00020C"/>
</svg>
