<svg width="300" height="300" viewBox="0 0 300 300" fill="none" xmlns="http://www.w3.org/2000/svg">
<g clip-path="url(#clip0_124_2)">
<rect width="299.096" height="299.096" fill="white"/>
<rect width="299.096" height="299.096" fill="#001BDA"/>
<path fill-rule="evenodd" clip-rule="evenodd" d="M67.2338 83.76C52.6146 101.986 43.8693 125.126 43.8693 150.309C43.8693 175.491 52.6146 198.631 67.2338 216.857V83.76ZM82.1031 68.5903V232.027C89.0566 237.837 96.763 242.776 105.055 246.677V53.9408C96.763 57.8413 89.0566 62.7803 82.1031 68.5903ZM119.924 48.2692V252.348C127.273 254.533 134.954 255.946 142.874 256.492V44.1249C134.954 44.6714 127.273 46.0842 119.924 48.2692ZM157.743 44.1249V67.4225H217.092C200.635 54.1457 180.142 45.6703 157.743 44.1249ZM232.184 82.2918H157.743V105.258H246.772C242.892 96.9638 237.974 89.2528 232.184 82.2918ZM252.408 120.127H157.743V143.078H256.506C255.975 135.159 254.578 127.477 252.408 120.127ZM256.478 157.947H157.743V256.493C166.048 255.92 174.091 254.394 181.764 252.024V181.823H252.005C254.366 174.196 255.893 166.201 256.478 157.947ZM246.137 196.693H196.633V210.405H211.503V225.275H196.633V246.166C218.187 235.73 235.689 218.239 246.137 196.693ZM29 150.309C29 83.3118 83.3118 29 150.309 29C217.306 29 271.617 83.3118 271.617 150.309C271.617 217.306 217.306 271.617 150.309 271.617C83.3118 271.617 29 217.306 29 150.309Z" fill="white"/>
</g>
<defs>
<clipPath id="clip0_124_2">
<rect width="299.096" height="299.096" fill="white"/>
</clipPath>
</defs>
</svg>
