<svg width="388" height="98" viewBox="0 0 388 98" fill="none" xmlns="http://www.w3.org/2000/svg">
<path fill-rule="evenodd" clip-rule="evenodd" d="M15.3032 22.0761C9.45182 29.3712 5.95149 38.6331 5.95149 48.7125C5.95149 58.7919 9.45182 68.0538 15.3032 75.3488V22.0761ZM21.2547 16.0044V81.4206C24.0379 83.7461 27.1224 85.7229 30.4411 87.2841V10.1409C27.1224 11.702 24.0379 13.6789 21.2547 16.0044ZM36.3926 7.87078V89.5542C39.334 90.4288 42.4085 90.9942 45.5784 91.2129V6.21201C42.4085 6.43073 39.334 6.99621 36.3926 7.87078ZM51.5299 6.212V15.5369H75.2845C68.6974 10.2229 60.4952 6.83054 51.5299 6.212ZM81.3253 21.4884H51.5299V30.6806H87.164C85.611 27.361 83.6425 24.2746 81.3253 21.4884ZM89.42 36.6321H51.5299V45.8183H91.0603C90.8477 42.6487 90.2884 39.5741 89.42 36.6321ZM91.049 51.7698H51.5299V91.213C54.8541 90.9836 58.0734 90.3729 61.1444 89.4243V61.3263H89.2588C90.2038 58.2734 90.8148 55.0736 91.049 51.7698ZM86.9099 67.2778H67.0959V72.7664H73.0475V78.7179H67.0959V87.0796C75.7229 82.9027 82.7279 75.9019 86.9099 67.2778ZM0 48.7125C0 21.8967 21.7385 0.158203 48.5543 0.158203C75.3701 0.158203 97.1086 21.8967 97.1086 48.7125C97.1086 75.5283 75.3701 97.2668 48.5543 97.2668C21.7385 97.2668 0 75.5283 0 48.7125Z" fill="white"/>
<path d="M350.176 78.6085V37.3324H357.926V42.892C359.695 40.4772 361.758 38.7363 364.117 37.6693C366.476 36.6023 368.89 36.0688 371.361 36.0688C375.096 36.0688 378.185 36.827 380.627 38.3432C383.098 39.8314 384.938 41.7408 386.145 44.0713C387.38 46.4019 387.998 48.7886 387.998 51.2315V78.6085H380.248V53.6322C380.248 50.5155 379.28 48.0164 377.342 46.1351C375.405 44.2258 372.765 43.2711 369.424 43.2711C367.234 43.2711 365.268 43.7625 363.527 44.7452C361.815 45.6999 360.453 47.0618 359.442 48.8307C358.431 50.5997 357.926 52.6354 357.926 54.9379V78.6085H350.176Z" fill="white"/>
<path d="M319.077 79.872C314.922 79.872 311.243 78.9033 308.042 76.9658C304.841 75.0284 302.342 72.417 300.545 69.1318C298.748 65.8185 297.85 62.098 297.85 57.9704C297.85 54.8817 298.369 52.0036 299.408 49.3361C300.447 46.6686 301.907 44.3521 303.788 42.3866C305.67 40.393 307.902 38.8487 310.485 37.7536C313.096 36.6304 315.961 36.0688 319.077 36.0688C323.233 36.0688 326.687 36.9393 329.438 38.6802C332.19 40.4211 334.338 42.6393 335.883 45.3349L334.745 47.0196V37.3324H341.821V78.6085H334.745V68.9212L335.883 70.5638C334.338 73.2594 332.19 75.4917 329.438 77.2607C326.687 79.0016 323.233 79.872 319.077 79.872ZM319.92 72.8803C322.671 72.8803 325.114 72.2766 327.248 71.0693C329.382 69.8338 331.053 68.1069 332.26 65.8887C333.496 63.6424 334.114 61.003 334.114 57.9704C334.114 54.9098 333.496 52.2704 332.26 50.0522C331.053 47.8058 329.382 46.079 327.248 44.8716C325.114 43.6642 322.671 43.0605 319.92 43.0605C317.168 43.0605 314.725 43.6642 312.591 44.8716C310.457 46.079 308.772 47.8058 307.537 50.0522C306.301 52.2704 305.684 54.9098 305.684 57.9704C305.684 61.003 306.301 63.6424 307.537 65.8887C308.772 68.1069 310.457 69.8338 312.591 71.0693C314.725 72.2766 317.168 72.8803 319.92 72.8803Z" fill="white"/>
<path d="M273.666 78.6081V37.332H281.416V43.3129C283.072 40.6173 285.038 38.736 287.312 37.669C289.615 36.5739 292.058 36.0264 294.641 36.0264C295.455 36.0264 296.241 36.0685 297 36.1527C297.758 36.237 298.502 36.3493 299.232 36.4897L298.095 44.5343C297.308 44.3097 296.508 44.1412 295.694 44.0289C294.88 43.8885 294.079 43.8183 293.293 43.8183C289.839 43.8183 286.989 44.8993 284.743 47.0614C282.525 49.1954 281.416 52.0594 281.416 55.6536V78.6081H273.666Z" fill="white"/>
<path d="M242.984 97.5618C240.316 97.5618 237.635 97.295 234.939 96.7615C232.244 96.228 229.674 95.3576 227.231 94.1502L229.295 87.5376C231.513 88.5765 233.76 89.3487 236.034 89.8541C238.309 90.3595 240.541 90.6122 242.731 90.6122C247.701 90.6122 251.492 89.3908 254.103 86.9479C256.742 84.505 258.062 81.29 258.062 77.3028V68.3316L259.157 69.9742C257.641 72.6978 255.521 74.9301 252.797 76.671C250.074 78.3838 246.648 79.2402 242.52 79.2402C238.309 79.2402 234.616 78.2856 231.443 76.3762C228.27 74.4387 225.799 71.8414 224.03 68.5843C222.261 65.3271 221.377 61.6769 221.377 57.6335C221.377 54.629 221.882 51.8211 222.893 49.2098C223.904 46.5985 225.336 44.31 227.189 42.3445C229.071 40.3509 231.303 38.8065 233.886 37.7115C236.469 36.6164 239.347 36.0688 242.52 36.0688C246.648 36.0688 250.074 36.9253 252.797 38.6381C255.521 40.3509 257.641 42.5691 259.157 45.2928L258.062 46.9775V37.2903H265.349V75.3653C265.349 82.3289 263.467 87.7622 259.705 91.6652C255.97 95.5962 250.397 97.5618 242.984 97.5618ZM243.447 72.3328C246.199 72.3328 248.642 71.7291 250.776 70.5217C252.938 69.3143 254.622 67.6156 255.83 65.4254C257.037 63.2352 257.641 60.6379 257.641 57.6335C257.641 54.6571 257.037 52.0739 255.83 49.8837C254.622 47.6655 252.938 45.9526 250.776 44.7452C248.642 43.5378 246.199 42.9341 243.447 42.9341C240.667 42.9341 238.21 43.5378 236.076 44.7452C233.942 45.9526 232.258 47.6655 231.022 49.8837C229.815 52.0739 229.211 54.6571 229.211 57.6335C229.211 60.6379 229.815 63.2352 231.022 65.4254C232.258 67.6156 233.942 69.3143 236.076 70.5217C238.21 71.7291 240.667 72.3328 243.447 72.3328Z" fill="white"/>
<path d="M208.995 78.6083V37.3322H216.745V78.6083H208.995ZM212.87 29.5403C211.41 29.5403 210.146 29.049 209.079 28.0662C208.012 27.0834 207.479 25.8339 207.479 24.3177C207.479 22.8014 208.012 21.5659 209.079 20.6112C210.146 19.6285 211.41 19.1371 212.87 19.1371C214.358 19.1371 215.621 19.6285 216.66 20.6112C217.727 21.5659 218.261 22.8014 218.261 24.3177C218.261 25.8339 217.727 27.0834 216.66 28.0662C215.621 29.049 214.358 29.5403 212.87 29.5403Z" fill="white"/>
<path d="M192.906 78.6083V17.9578H200.656V78.6083H192.906Z" fill="white"/>
<path d="M176.823 78.6084V37.3324H184.573V78.6084H176.823ZM180.698 29.5405C179.238 29.5405 177.974 29.0491 176.907 28.0663C175.84 27.0836 175.307 25.834 175.307 24.3178C175.307 22.8015 175.84 21.566 176.907 20.6114C177.974 19.6286 179.238 19.1372 180.698 19.1372C182.186 19.1372 183.45 19.6286 184.488 20.6114C185.555 21.566 186.089 22.8015 186.089 24.3178C186.089 25.834 185.555 27.0836 184.488 28.0663C183.45 29.0491 182.186 29.5405 180.698 29.5405Z" fill="white"/>
<path d="M134.562 78.6083V19.6425H170.195V26.9289H142.481V45.4611H155.541V52.5791H142.481V78.6083H134.562Z" fill="white"/>
</svg>
