<svg width="427" height="94" viewBox="0 0 427 94" fill="none" xmlns="http://www.w3.org/2000/svg">
<path d="M160.928 75.2117C156.701 75.2117 152.783 74.4712 149.175 72.9902C145.593 71.4823 142.456 69.3955 139.764 66.7298C137.098 64.064 135.025 60.9405 133.544 57.3593C132.063 53.778 131.322 49.9006 131.322 45.7269C131.322 41.5264 132.063 37.6355 133.544 34.0542C135.025 30.473 137.098 27.3495 139.764 24.6837C142.456 22.018 145.593 19.9446 149.175 18.4636C152.783 16.9827 156.701 16.2422 160.928 16.2422C165.129 16.2422 169.02 16.9961 172.601 18.504C176.182 20.0119 179.319 22.1122 182.012 24.8049C184.704 27.4976 186.791 30.6345 188.272 34.2158C189.78 37.7701 190.534 41.6072 190.534 45.7269C190.534 49.9006 189.78 53.778 188.272 57.3593C186.791 60.9405 184.704 64.064 182.012 66.7298C179.319 69.3955 176.182 71.4823 172.601 72.9902C169.02 74.4712 165.129 75.2117 160.928 75.2117ZM160.928 67.9819C163.971 67.9819 166.798 67.4568 169.41 66.4067C172.049 65.3565 174.351 63.8621 176.317 61.9234C178.282 59.9577 179.817 57.6016 180.921 54.8551C182.052 52.1086 182.618 49.0659 182.618 45.7269C182.618 41.2302 181.648 37.3123 179.71 33.9734C177.798 30.6345 175.199 28.0496 171.914 26.2185C168.629 24.3606 164.967 23.4316 160.928 23.4316C157.885 23.4316 155.045 23.9702 152.406 25.0472C149.794 26.0974 147.492 27.6053 145.499 29.5709C143.534 31.5096 141.999 33.8523 140.895 36.5988C139.791 39.3184 139.239 42.3611 139.239 45.7269C139.239 50.1968 140.195 54.1011 142.106 57.4401C144.045 60.779 146.657 63.3774 149.942 65.2353C153.227 67.0664 156.889 67.9819 160.928 67.9819Z" fill="#00020C"/>
<path d="M195.38 90.9638V34.4177H202.206V40.3551C203.848 38.2548 205.908 36.5449 208.385 35.2255C210.889 33.8792 214.04 33.206 217.837 33.206C221.768 33.206 225.228 34.135 228.217 35.9929C231.206 37.8239 233.535 40.3281 235.204 43.5055C236.901 46.6828 237.749 50.2506 237.749 54.2089C237.749 57.09 237.264 59.8096 236.295 62.3676C235.352 64.8988 233.993 67.1337 232.215 69.0724C230.438 70.9842 228.324 72.4921 225.874 73.5961C223.451 74.6732 220.745 75.2117 217.756 75.2117C214.417 75.2117 211.495 74.5924 208.991 73.3537C206.514 72.0882 204.44 70.4322 202.771 68.3858V90.9638H195.38ZM216.504 68.5069C219.169 68.5069 221.525 67.928 223.572 66.7702C225.645 65.5854 227.261 63.9294 228.419 61.8022C229.603 59.648 230.196 57.1169 230.196 54.2089C230.196 51.2738 229.603 48.7427 228.419 46.6155C227.261 44.4614 225.645 42.8054 223.572 41.6475C221.525 40.4897 219.169 39.9108 216.504 39.9108C213.838 39.9108 211.468 40.4897 209.395 41.6475C207.349 42.8054 205.733 44.4614 204.548 46.6155C203.363 48.7427 202.771 51.2738 202.771 54.2089C202.771 57.1169 203.363 59.648 204.548 61.8022C205.733 63.9294 207.349 65.5854 209.395 66.7702C211.468 67.928 213.838 68.5069 216.504 68.5069Z" fill="#00020C"/>
<path d="M259.602 75.2117C255.402 75.2117 251.699 74.3366 248.495 72.5863C245.291 70.8361 242.787 68.3992 240.983 65.2757C239.178 62.1253 238.276 58.4633 238.276 54.2896C238.276 51.2738 238.788 48.4735 239.811 45.8885C240.861 43.3035 242.315 41.0686 244.173 39.1837C246.058 37.2989 248.253 35.8314 250.757 34.7812C253.288 33.7311 256.035 33.206 258.997 33.206C262.201 33.206 265.055 33.7715 267.559 34.9024C270.09 36.0333 272.177 37.622 273.82 39.6684C275.489 41.6879 276.687 44.0709 277.414 46.8175C278.141 49.5371 278.29 52.499 277.859 55.7033H245.627C245.547 58.3421 246.085 60.6578 247.243 62.6504C248.401 64.616 250.07 66.1508 252.251 67.2548C254.459 68.3588 257.071 68.9108 260.087 68.9108C262.295 68.9108 264.449 68.5608 266.549 67.8607C268.65 67.1606 270.508 66.1239 272.123 64.7507L275.274 70.2841C273.981 71.3342 272.446 72.2363 270.669 72.9902C268.919 73.7173 267.088 74.2693 265.176 74.6462C263.264 75.0232 261.406 75.2117 259.602 75.2117ZM246.031 49.9275H270.427C270.319 46.5886 269.283 43.9902 267.317 42.1322C265.351 40.2474 262.537 39.3049 258.875 39.3049C255.321 39.3049 252.386 40.2474 250.07 42.1322C247.755 43.9902 246.408 46.5886 246.031 49.9275Z" fill="#00020C"/>
<path d="M281.811 74V34.4177H289.243V39.7492C290.939 37.4335 292.918 35.7641 295.18 34.7408C297.442 33.7176 299.758 33.206 302.127 33.206C305.709 33.206 308.671 33.933 311.013 35.3871C313.383 36.8142 315.147 38.6452 316.304 40.8801C317.489 43.115 318.082 45.4038 318.082 47.7464V74H310.65V50.0487C310.65 47.0598 309.721 44.6633 307.863 42.8592C306.005 41.0282 303.474 40.1127 300.27 40.1127C298.169 40.1127 296.284 40.5839 294.615 41.5264C292.972 42.4419 291.666 43.7478 290.697 45.4442C289.728 47.1406 289.243 49.0928 289.243 51.3008V74H281.811Z" fill="#00020C"/>
<path d="M351.608 75.2117C345.765 75.2117 340.649 74 336.26 71.5766C331.898 69.1263 328.505 65.6931 326.082 61.2771C323.685 56.8342 322.487 51.6508 322.487 45.7269C322.487 41.4456 323.201 37.5143 324.628 33.933C326.055 30.3249 328.074 27.2014 330.686 24.5625C333.298 21.9237 336.381 19.8773 339.936 18.4233C343.517 16.9692 347.421 16.2422 351.649 16.2422C355.822 16.2422 359.471 16.7673 362.595 17.8174C365.718 18.8406 368.411 20.3081 370.673 22.2199L366.634 28.44C364.803 26.7975 362.675 25.5723 360.252 24.7645C357.829 23.9567 355.149 23.5528 352.214 23.5528C348.902 23.5528 345.9 24.0644 343.207 25.0876C340.515 26.1108 338.212 27.5918 336.301 29.5305C334.416 31.4423 332.962 33.758 331.938 36.4776C330.915 39.1972 330.404 42.2534 330.404 45.6462C330.404 50.3314 331.306 54.33 333.11 57.642C334.941 60.954 337.526 63.4851 340.865 65.2353C344.204 66.9587 348.148 67.8203 352.699 67.8203C355.634 67.8203 358.448 67.3895 361.141 66.5278C363.86 65.6392 366.405 64.1987 368.774 62.2061L372.329 68.6685C369.555 70.8496 366.445 72.4921 362.998 73.5961C359.579 74.6732 355.782 75.2117 351.608 75.2117Z" fill="#00020C"/>
<path d="M390.889 74V24.4414H374.693V17.4539H414.679V24.4414H398.482V74H390.889Z" fill="#00020C"/>
<path d="M418.977 74V17.4539H426.57V74H418.977Z" fill="#00020C"/>
<path fill-rule="evenodd" clip-rule="evenodd" d="M88.1713 92.7898L0.121094 4.73959L4.36373 0.496948L92.4139 88.5471L88.1713 92.7898Z" fill="#001BDA"/>
<path fill-rule="evenodd" clip-rule="evenodd" d="M0.121094 88.5471L88.1713 0.496948L92.4139 4.73959L4.36373 92.7898L0.121094 88.5471Z" fill="#001BDA"/>
<path fill-rule="evenodd" clip-rule="evenodd" d="M71.719 4.73985L46.0981 30.3516L20.498 4.73891L24.7418 0.497398L46.0995 21.8665L67.4771 0.49646L71.719 4.73985Z" fill="#001BDA"/>
<path fill-rule="evenodd" clip-rule="evenodd" d="M46.2061 62.9672L48.3561 65.1175L71.7933 88.5463L67.5514 92.7897L46.2067 71.4526L24.8739 92.7892L20.6309 88.5469L46.2061 62.9672Z" fill="#001BDA"/>
<path d="M50.4152 5.58703L45.8281 1L41.2411 5.58703L45.8281 10.1741L50.4152 5.58703Z" fill="#001BDA"/>
<path d="M50.4191 88.587L45.832 84L41.245 88.587L45.832 93.1741L50.4191 88.587Z" fill="#001BDA"/>
</svg>
